<mxfile host="app.diagrams.net" modified="2023-11-29T06:37:19.344Z" agent="Mozilla/5.0 (Macintosh; Intel Mac OS X 10_15_7) AppleWebKit/537.36 (KHTML, like Gecko) Chrome/119.0.0.0 Safari/537.36" etag="UF4xuNsWhS8UD_k8B6Pj" version="22.1.4" type="github">
  <diagram id="R2lEEEUBdFMjLlhIrx00" name="Page-1">
    <mxGraphModel dx="1152" dy="734" grid="1" gridSize="10" guides="1" tooltips="1" connect="1" arrows="1" fold="1" page="1" pageScale="1" pageWidth="850" pageHeight="1100" math="0" shadow="0" extFonts="Permanent Marker^https://fonts.googleapis.com/css?family=Permanent+Marker">
      <root>
        <mxCell id="0" />
        <mxCell id="1" parent="0" />
        <mxCell id="bYHmYPXp1AetGVVPddvR-1" value="&lt;font style=&quot;font-size: 18px;&quot;&gt;Cardano&lt;/font&gt;" style="ellipse;whiteSpace=wrap;html=1;aspect=fixed;" vertex="1" parent="1">
          <mxGeometry x="290" y="250" width="170" height="170" as="geometry" />
        </mxCell>
        <mxCell id="bYHmYPXp1AetGVVPddvR-2" value="Staking" style="text;html=1;align=center;verticalAlign=middle;resizable=0;points=[];autosize=1;strokeColor=none;fillColor=none;" vertex="1" parent="1">
          <mxGeometry x="365" y="370" width="60" height="30" as="geometry" />
        </mxCell>
        <mxCell id="bYHmYPXp1AetGVVPddvR-3" value="SPO" style="text;html=1;align=center;verticalAlign=middle;resizable=0;points=[];autosize=1;strokeColor=none;fillColor=none;" vertex="1" parent="1">
          <mxGeometry x="325" y="270" width="50" height="30" as="geometry" />
        </mxCell>
        <mxCell id="bYHmYPXp1AetGVVPddvR-4" value="Partner&lt;br&gt;Midnight" style="ellipse;whiteSpace=wrap;html=1;aspect=fixed;" vertex="1" parent="1">
          <mxGeometry x="470" y="160" width="80" height="80" as="geometry" />
        </mxCell>
        <mxCell id="bYHmYPXp1AetGVVPddvR-5" value="Partner&lt;br&gt;World Mobile" style="ellipse;whiteSpace=wrap;html=1;aspect=fixed;" vertex="1" parent="1">
          <mxGeometry x="520" y="295" width="80" height="80" as="geometry" />
        </mxCell>
        <mxCell id="bYHmYPXp1AetGVVPddvR-6" value="Partner&lt;br&gt;Something for gaming" style="ellipse;whiteSpace=wrap;html=1;aspect=fixed;" vertex="1" parent="1">
          <mxGeometry x="470" y="430" width="80" height="80" as="geometry" />
        </mxCell>
        <mxCell id="bYHmYPXp1AetGVVPddvR-7" value="Partner&lt;br&gt;Something for infra" style="ellipse;whiteSpace=wrap;html=1;aspect=fixed;" vertex="1" parent="1">
          <mxGeometry x="335" y="470" width="80" height="80" as="geometry" />
        </mxCell>
        <mxCell id="bYHmYPXp1AetGVVPddvR-8" value="Partner&lt;br&gt;Something else" style="ellipse;whiteSpace=wrap;html=1;aspect=fixed;" vertex="1" parent="1">
          <mxGeometry x="200" y="430" width="80" height="80" as="geometry" />
        </mxCell>
        <mxCell id="bYHmYPXp1AetGVVPddvR-9" value="Partner&lt;br&gt;Something else" style="ellipse;whiteSpace=wrap;html=1;aspect=fixed;" vertex="1" parent="1">
          <mxGeometry x="150" y="295" width="80" height="80" as="geometry" />
        </mxCell>
        <mxCell id="bYHmYPXp1AetGVVPddvR-10" value="Partner&lt;br&gt;Something else" style="ellipse;whiteSpace=wrap;html=1;aspect=fixed;" vertex="1" parent="1">
          <mxGeometry x="210" y="160" width="80" height="80" as="geometry" />
        </mxCell>
        <mxCell id="bYHmYPXp1AetGVVPddvR-11" value="Partner&lt;br&gt;Something else" style="ellipse;whiteSpace=wrap;html=1;aspect=fixed;" vertex="1" parent="1">
          <mxGeometry x="335" y="110" width="80" height="80" as="geometry" />
        </mxCell>
        <mxCell id="bYHmYPXp1AetGVVPddvR-12" value="" style="endArrow=classic;startArrow=classic;html=1;rounded=0;entryX=0.5;entryY=0;entryDx=0;entryDy=0;exitX=0.5;exitY=1;exitDx=0;exitDy=0;" edge="1" parent="1" source="bYHmYPXp1AetGVVPddvR-1" target="bYHmYPXp1AetGVVPddvR-7">
          <mxGeometry width="50" height="50" relative="1" as="geometry">
            <mxPoint x="360" y="450" as="sourcePoint" />
            <mxPoint x="450" y="350" as="targetPoint" />
          </mxGeometry>
        </mxCell>
        <mxCell id="bYHmYPXp1AetGVVPddvR-13" value="" style="endArrow=classic;startArrow=classic;html=1;rounded=0;entryX=0;entryY=0;entryDx=0;entryDy=0;exitX=1;exitY=1;exitDx=0;exitDy=0;" edge="1" parent="1" source="bYHmYPXp1AetGVVPddvR-1" target="bYHmYPXp1AetGVVPddvR-6">
          <mxGeometry width="50" height="50" relative="1" as="geometry">
            <mxPoint x="400" y="400" as="sourcePoint" />
            <mxPoint x="450" y="350" as="targetPoint" />
          </mxGeometry>
        </mxCell>
        <mxCell id="bYHmYPXp1AetGVVPddvR-15" value="" style="endArrow=classic;startArrow=classic;html=1;rounded=0;entryX=0;entryY=0.5;entryDx=0;entryDy=0;exitX=1;exitY=0.5;exitDx=0;exitDy=0;" edge="1" parent="1" source="bYHmYPXp1AetGVVPddvR-1" target="bYHmYPXp1AetGVVPddvR-5">
          <mxGeometry width="50" height="50" relative="1" as="geometry">
            <mxPoint x="445" y="405" as="sourcePoint" />
            <mxPoint x="482" y="442" as="targetPoint" />
            <Array as="points" />
          </mxGeometry>
        </mxCell>
        <mxCell id="bYHmYPXp1AetGVVPddvR-16" value="" style="endArrow=classic;startArrow=classic;html=1;rounded=0;entryX=0;entryY=0.5;entryDx=0;entryDy=0;exitX=1;exitY=0.5;exitDx=0;exitDy=0;" edge="1" parent="1" source="bYHmYPXp1AetGVVPddvR-9" target="bYHmYPXp1AetGVVPddvR-1">
          <mxGeometry width="50" height="50" relative="1" as="geometry">
            <mxPoint x="240" y="334.5" as="sourcePoint" />
            <mxPoint x="300" y="334.5" as="targetPoint" />
            <Array as="points" />
          </mxGeometry>
        </mxCell>
        <mxCell id="bYHmYPXp1AetGVVPddvR-17" value="" style="endArrow=classic;startArrow=classic;html=1;rounded=0;entryX=0;entryY=0;entryDx=0;entryDy=0;exitX=0.763;exitY=0.913;exitDx=0;exitDy=0;exitPerimeter=0;" edge="1" parent="1" source="bYHmYPXp1AetGVVPddvR-10" target="bYHmYPXp1AetGVVPddvR-1">
          <mxGeometry width="50" height="50" relative="1" as="geometry">
            <mxPoint x="250" y="270" as="sourcePoint" />
            <mxPoint x="310" y="270" as="targetPoint" />
            <Array as="points" />
          </mxGeometry>
        </mxCell>
        <mxCell id="bYHmYPXp1AetGVVPddvR-18" value="" style="endArrow=classic;startArrow=classic;html=1;rounded=0;exitX=0;exitY=1;exitDx=0;exitDy=0;entryX=1;entryY=0;entryDx=0;entryDy=0;" edge="1" parent="1" source="bYHmYPXp1AetGVVPddvR-1" target="bYHmYPXp1AetGVVPddvR-8">
          <mxGeometry width="50" height="50" relative="1" as="geometry">
            <mxPoint x="280" y="380" as="sourcePoint" />
            <mxPoint x="280" y="430" as="targetPoint" />
          </mxGeometry>
        </mxCell>
        <mxCell id="bYHmYPXp1AetGVVPddvR-19" value="" style="endArrow=classic;startArrow=classic;html=1;rounded=0;exitX=0;exitY=1;exitDx=0;exitDy=0;entryX=1;entryY=0;entryDx=0;entryDy=0;" edge="1" parent="1" source="bYHmYPXp1AetGVVPddvR-4" target="bYHmYPXp1AetGVVPddvR-1">
          <mxGeometry width="50" height="50" relative="1" as="geometry">
            <mxPoint x="450" y="210" as="sourcePoint" />
            <mxPoint x="440" y="270" as="targetPoint" />
          </mxGeometry>
        </mxCell>
        <mxCell id="bYHmYPXp1AetGVVPddvR-20" value="" style="endArrow=classic;startArrow=classic;html=1;rounded=0;exitX=0.5;exitY=1;exitDx=0;exitDy=0;entryX=0.5;entryY=0;entryDx=0;entryDy=0;" edge="1" parent="1" source="bYHmYPXp1AetGVVPddvR-11" target="bYHmYPXp1AetGVVPddvR-1">
          <mxGeometry width="50" height="50" relative="1" as="geometry">
            <mxPoint x="492" y="238" as="sourcePoint" />
            <mxPoint x="445" y="285" as="targetPoint" />
          </mxGeometry>
        </mxCell>
      </root>
    </mxGraphModel>
  </diagram>
</mxfile>
